<?xml version="1.0" encoding="UTF-8"?>
<svg id="Ebene_1" data-name="Ebene 1" xmlns="http://www.w3.org/2000/svg" xmlns:xlink="http://www.w3.org/1999/xlink" viewBox="0 0 1843.05 1115.26">
  <defs>
    <style>
      .cls-1, .cls-2 {
        isolation: isolate;
      }

      .cls-3 {
        clip-path: url(#clippath-1);
      }

      .cls-2 {
        fill: #106dcd;
      }

      .cls-4 {
        clip-path: url(#clippath);
      }

      .cls-5 {
        fill: none;
      }

      .cls-6 {
        fill: #1d1d1b;
      }
    </style>
    <clipPath id="clippath">
      <rect class="cls-5" x="676.65" width="498.37" height="397.11"/>
    </clipPath>
    <clipPath id="clippath-1">
      <rect class="cls-5" x="772.23" y="718.14" width="498.37" height="397.11"/>
    </clipPath>
  </defs>
  <rect class="cls-2" x="134.93" y="29.59" width="41.33" height="550.81" transform="translate(173.34 -36.94) rotate(30)"/>
  <rect class="cls-2" x="134.25" y="485.73" width="42.8" height="548.46" transform="translate(-359.12 179.64) rotate(-30)"/>
  <rect class="cls-2" x="274.23" y="965.64" width="549.61" height="42.51"/>
  <rect class="cls-2" x="275.4" y="56.15" width="547.28" height="42.53"/>
  <g class="cls-4">
    <rect class="cls-2" x="921.82" y="29.59" width="41.34" height="550.79" transform="translate(-26.22 512.11) rotate(-30)"/>
  </g>
  <g class="cls-3">
    <rect class="cls-2" x="668.19" y="738.54" width="548.47" height="42.81" transform="translate(-186.92 1196.14) rotate(-60)"/>
  </g>
  <g class="cls-1">
    <path class="cls-6" d="M625.24,658.82c-3.48-10.17-7.09-20.21-10.82-30.13-3.73-9.92-7.34-20.09-10.81-30.5h-108.89c-3.48,10.42-7.03,20.65-10.63,30.69-3.6,10.04-7.15,20.03-10.63,29.95h-48.74c9.66-27.53,18.83-52.95,27.5-76.26,8.67-23.31,17.16-45.38,25.46-66.22,8.3-20.83,16.54-40.67,24.71-59.52,8.18-18.84,16.61-37.44,25.28-55.8h44.74c8.68,18.36,17.11,36.96,25.3,55.8,8.18,18.85,16.43,38.69,24.74,59.52,8.31,20.83,16.87,42.91,25.67,66.22,8.8,23.31,18.04,48.73,27.71,76.26h-50.6Zm-76.07-207.95c-5.71,13.15-12.22,29.14-19.53,47.99-7.32,18.85-14.94,39.31-22.88,61.38h84.82c-7.94-22.07-15.62-42.65-23.06-61.75-7.44-19.09-13.89-34.97-19.34-47.62Z"/>
    <path class="cls-6" d="M751.82,658.82c-12.45-25.54-25.21-54.87-38.29-87.98-13.08-33.11-24.96-68.63-35.67-106.58h48.01c2.74,10.92,5.91,22.63,9.52,35.15,3.61,12.53,7.47,25.05,11.58,37.57,4.11,12.53,8.34,24.68,12.7,36.46,4.36,11.78,8.4,22.38,12.14,31.81,3.73-9.42,7.72-20.03,11.95-31.81,4.23-11.78,8.41-23.93,12.51-36.46,4.1-12.52,8.03-25.05,11.76-37.57,3.73-12.52,6.97-24.24,9.71-35.15h46.51c-10.71,37.94-22.6,73.47-35.67,106.58-13.08,33.11-25.84,62.44-38.29,87.98h-38.48Z"/>
    <path class="cls-6" d="M886.01,562.47c0-17.11,2.54-32.11,7.63-45.01,5.08-12.89,11.84-23.62,20.27-32.18,8.43-8.56,18.1-15,29.02-19.34,10.91-4.34,22.07-6.51,33.48-6.51,26.78,0,47.67,8.31,62.68,24.92,15,16.62,22.51,41.42,22.51,74.4,0,2.48-.06,5.27-.19,8.37-.13,3.1-.31,5.89-.56,8.37h-128.34c1.24,15.62,6.75,27.71,16.55,36.27,9.79,8.56,23.99,12.83,42.59,12.83,10.91,0,20.89-.99,29.95-2.98,9.05-1.98,16.18-4.09,21.39-6.32l5.95,36.83c-2.48,1.24-5.89,2.55-10.23,3.91-4.34,1.37-9.3,2.6-14.88,3.72-5.58,1.12-11.6,2.05-18.04,2.79-6.45,.74-13.02,1.12-19.72,1.12-17.11,0-31.99-2.55-44.64-7.63-12.65-5.08-23.06-12.15-31.25-21.2-8.18-9.05-14.26-19.72-18.23-31.99-3.97-12.28-5.95-25.73-5.95-40.36Zm130.57-20.09c0-6.2-.87-12.09-2.6-17.67-1.74-5.58-4.28-10.42-7.63-14.51-3.35-4.09-7.44-7.31-12.28-9.67-4.84-2.35-10.6-3.53-17.3-3.53s-13.02,1.3-18.23,3.91c-5.21,2.6-9.61,6.02-13.21,10.23-3.6,4.22-6.39,9.06-8.37,14.51-1.99,5.46-3.35,11.04-4.09,16.74h83.7Z"/>
    <path class="cls-6" d="M1111.03,470.58c8.68-2.48,19.96-4.84,33.85-7.07,13.89-2.23,29.26-3.35,46.13-3.35,15.87,0,29.14,2.17,39.8,6.51,10.66,4.34,19.16,10.42,25.48,18.23s10.79,17.24,13.39,28.27c2.6,11.04,3.91,23.13,3.91,36.27v109.37h-45.01v-102.3c0-10.42-.69-19.28-2.05-26.6-1.37-7.31-3.6-13.26-6.7-17.86-3.1-4.59-7.32-7.93-12.65-10.04-5.34-2.1-11.85-3.16-19.53-3.16-5.71,0-11.66,.37-17.86,1.12-6.2,.74-10.79,1.37-13.76,1.86v156.98h-45.01v-188.23Z"/>
    <path class="cls-6" d="M1328.35,412.92l45.01-7.44v58.78h69.19v37.57h-69.19v79.24c0,15.62,2.48,26.78,7.44,33.48,4.96,6.7,13.39,10.04,25.3,10.04,8.18,0,15.44-.87,21.76-2.6,6.32-1.73,11.35-3.35,15.07-4.84l7.44,35.71c-5.21,2.23-12.03,4.53-20.46,6.88-8.43,2.35-18.36,3.53-29.76,3.53-13.89,0-25.48-1.86-34.78-5.58s-16.68-9.11-22.13-16.18c-5.46-7.07-9.3-15.62-11.53-25.67-2.23-10.04-3.35-21.51-3.35-34.41v-168.52Z"/>
    <path class="cls-6" d="M1476.14,562.47c0-17.11,2.54-32.11,7.63-45.01,5.08-12.89,11.84-23.62,20.27-32.18,8.43-8.56,18.1-15,29.02-19.34,10.91-4.34,22.07-6.51,33.48-6.51,26.78,0,47.67,8.31,62.68,24.92,15,16.62,22.51,41.42,22.51,74.4,0,2.48-.06,5.27-.19,8.37-.13,3.1-.31,5.89-.56,8.37h-128.34c1.24,15.62,6.75,27.71,16.55,36.27,9.79,8.56,23.99,12.83,42.59,12.83,10.91,0,20.89-.99,29.95-2.98,9.05-1.98,16.18-4.09,21.39-6.32l5.95,36.83c-2.48,1.24-5.89,2.55-10.23,3.91-4.34,1.37-9.3,2.6-14.88,3.72-5.58,1.12-11.6,2.05-18.04,2.79-6.45,.74-13.02,1.12-19.72,1.12-17.11,0-31.99-2.55-44.64-7.63-12.65-5.08-23.06-12.15-31.25-21.2-8.18-9.05-14.26-19.72-18.23-31.99-3.97-12.28-5.95-25.73-5.95-40.36Zm130.57-20.09c0-6.2-.87-12.09-2.6-17.67-1.74-5.58-4.28-10.42-7.63-14.51-3.35-4.09-7.44-7.31-12.28-9.67-4.84-2.35-10.6-3.53-17.3-3.53s-13.02,1.3-18.23,3.91c-5.21,2.6-9.61,6.02-13.21,10.23-3.6,4.22-6.39,9.06-8.37,14.51-1.99,5.46-3.35,11.04-4.09,16.74h83.7Z"/>
    <path class="cls-6" d="M1691.64,561.72c0-14.38,2.23-27.84,6.7-40.36,4.46-12.52,10.85-23.37,19.16-32.55,8.31-9.17,18.41-16.37,30.32-21.58,11.9-5.21,25.3-7.81,40.18-7.81,18.35,0,35.71,3.35,52.08,10.04l-9.67,36.83c-5.21-2.23-11.1-4.09-17.67-5.58-6.57-1.49-13.58-2.23-21.02-2.23-17.61,0-31,5.52-40.18,16.55-9.18,11.04-13.76,26.6-13.76,46.69s4.34,34.66,13.02,45.94c8.68,11.29,23.31,16.93,43.9,16.93,7.68,0,15.25-.74,22.69-2.23,7.44-1.49,13.89-3.35,19.34-5.58l6.32,37.2c-4.96,2.48-12.46,4.71-22.51,6.7-10.04,1.98-20.4,2.98-31.06,2.98-16.62,0-31.06-2.55-43.34-7.63-12.28-5.08-22.45-12.15-30.5-21.2-8.06-9.05-14.08-19.84-18.04-32.36-3.97-12.52-5.95-26.1-5.95-40.73Z"/>
  </g>
</svg>